# xmcd CD database file
#
# Track frame offsets:
#	150
#	25655
#	61157
#	81322
#	93505
#	102347
#	133302
#	154265
#	187407
#	203672
#	234127
#
# Disc length: 3350 seconds
#
# Revision: 0
# Processed by: cddbd v1.5.2PL0 Copyright (c) Steve Scherf et al.
# Submitted via: CDex 1.51
#
DISCID=910d140b
DTITLE=Thelonious Monk - Jazz Moods: 'Round Midnight
DYEAR=1900
DGENRE=Jazz
TTITLE0=Ruby, My Dear
TTITLE1=Sweet And Lovely
TTITLE2=Body And Soul
TTITLE3=Crepuscule With Nellie
TTITLE4=I Should Care
TTITLE5=I Didn't Know About You
TTITLE6=Ask Me Now
TTITLE7=Ugly Beauty
TTITLE8=Darn That Dream
TTITLE9=Pannonica
TTITLE10='Round Midnight
EXTD=
EXTT0=
EXTT1=
EXTT2=
EXTT3=
EXTT4=
EXTT5=
EXTT6=
EXTT7=
EXTT8=
EXTT9=
EXTT10=
PLAYORDER=
